PathFileType	4	(X/Y/Z)	Patient4_TMGait_0pt7_02_right_13.trc.trc
DataRate	CameraRate	NumFrames	NumMarkers	Units	OrigDataRate	OrigDataStartFrame	OrigNumFrames
85.365853658537	85.365853658537	4	33	mm	85.365853658537	36	       141
Frame#	Time	Sacral			L.Shoulder			Chest			R.Shoulder			Neck			R.ASIS			L.ASIS			R.Thigh.Superior			R.Thigh.Lateral			R.Thigh.Inferior			R.Patella			L.Thigh.Superior			L.Thigh.Lateral			L.Thigh.Inferior			L.Patella			L.Shank.Superior			L.Shank.Lateral			L.Shank.Inferior			R.Shank.Superior			R.Shank.Lateral			R.Shank.Inferior			R.Heel			R.Midfoot.Superior			R.Midfoot.Lateral			R.Toe			L.Heel			L.Midfoot.Lateral			L.Midfoot.Superior			L.Toe			L.Elbow			L.Wrist			R.Elbow			R.Wrist			
		X1	Y1	Z1	X2	Y2	Z2	X3	Y3	Z3	X4	Y4	Z4	X5	Y5	Z5	X6	Y6	Z6	X7	Y7	Z7	X8	Y8	Z8	X9	Y9	Z9	X10	Y10	Z10	X11	Y11	Z11	X12	Y12	Z12	X13	Y13	Z13	X14	Y14	Z14	X15	Y15	Z15	X16	Y16	Z16	X17	Y17	Z17	X18	Y18	Z18	X19	Y19	Z19	X20	Y20	Z20	X21	Y21	Z21	X22	Y22	Z22	X23	Y23	Z23	X24	Y24	Z24	X25	Y25	Z25	X26	Y26	Z26	X27	Y27	Z27	X28	Y28	Z28	X29	Y29	Z29	X30	Y30	Z30	X31	Y31	Z31	X32	Y32	Z32	X33	Y33	Z33	

36	14.370000000000	767.203735660291	1001.203222346902	485.789590538740	950.563284400219	1417.198937565963	282.451640188710	1054.803938233674	1351.509375689689	445.686506571840	976.316387746028	1440.586374389400	614.657447124996	960.035615993267	1485.414808833108	431.465782982845	995.881620388667	936.892980738367	602.970156629232	979.228627669143	955.372552358978	327.498976695593	1059.199355406468	751.162681322779	571.780006315530	993.120818905877	633.994838944937	634.993294488301	1075.972743817997	590.760745468996	554.529711500816	1088.448007311587	502.778337894972	562.566872492614	1001.002917756405	731.955475579041	347.622508951964	897.156679403004	627.925853561110	284.050232648097	975.282184230799	534.617897833993	337.894634995488	961.784444791176	452.415161199805	334.638919039895	895.914900959210	397.174526608630	328.954582468360	757.305308206875	345.585649454044	282.480909237058	753.013784170716	215.712707569368	338.651421820347	1068.928665784433	412.151320798415	571.189194913333	1007.948536725648	302.666104701315	634.052485942531	1059.876846598290	211.585173414865	572.552507783796	940.584893151480	42.143704669512	544.701932842418	1112.330884057032	99.271737936319	578.123757394447	1025.107749213572	36.906930622961	617.518002831019	1232.433291955148	48.449487367852	602.847664734783	569.322291689160	128.527678558754	379.495849691074	632.258497958526	85.928471982484	303.086228173685	733.619794382815	111.909754995152	322.909485001229	827.243565679554	33.291952627063	304.816835657929	928.084200262455	1068.177638152122	169.325874551830	1165.812248612440	967.832578755340	180.327561833542	856.291364011518	1128.085825971610	756.817601695290	857.225560887461	865.284414254908	766.783482241362	
37	14.381714285714	767.408187038542	1003.029025362118	489.266318366069	951.212012567306	1418.361949440062	284.964710016480	1056.081996935593	1352.448680138828	447.727194513840	978.566387554712	1441.782287739644	616.965358052121	961.300913329002	1486.504322353184	433.972116093962	996.508942255026	938.090497463433	605.629976782607	978.246418677268	955.910287372383	330.658686466645	1057.381509280717	750.300916395634	575.244561345944	988.944798324802	634.125689946117	637.376169937317	1071.340890650163	589.974222685971	556.823442391633	1082.523555727013	502.151901838755	564.112328018484	1006.026443008919	734.465092391243	350.542941957374	906.740497897343	627.859401007717	285.787062306047	987.723104110756	536.172631225788	339.705814761230	975.199162887854	452.670295674765	335.509296784285	907.150014948872	397.827453879698	329.704300617897	766.686005906146	351.656938244855	282.990578138680	757.637524489468	221.814146952618	338.170548200946	1062.576194802825	411.829208796346	572.702868747918	1000.968014293261	302.501013776548	635.110696160788	1052.403605685468	211.348673525254	573.242894305752	932.497167310194	42.100997500055	544.855091628985	1104.143425275154	99.469451427614	578.418942482306	1016.969227335860	36.871459640039	617.695074653347	1224.331133501997	48.336585682117	603.117106020580	570.702076985303	145.215687191247	378.611566119118	630.502974379785	97.810606479763	302.486361475486	733.322945411018	116.628243084556	322.014193335272	819.893958656264	31.845609139968	304.711313396448	921.972769407498	1068.597717023982	174.938088500950	1154.524845445309	954.927456307877	183.970039343515	861.854277369687	1127.564238568060	759.199690088279	870.136071836816	864.803364257136	765.634940620962	
38	14.393428571429	767.509476344272	1004.642453540998	492.720595793960	951.558831808334	1419.301374271219	287.396915529729	1057.226516810260	1353.117240739429	449.572198152667	980.881002686986	1442.706693943122	619.183476085591	962.434378062949	1487.384632650509	436.422865990593	996.973075287821	939.054193139310	608.135980582279	977.136451924223	956.250587215100	333.642187759166	1055.307646364193	749.270400051538	578.759726604432	984.503062339380	634.157169712882	639.732328516553	1066.457515373957	589.135290372113	559.129787711236	1076.350144273607	501.505124443744	565.709326595237	1011.142664561319	737.235084587007	353.435117108078	916.739402479964	628.047826599842	287.414392458202	1000.439782327943	538.197470637740	341.672137000941	989.062066028434	453.454304710152	336.751595524643	919.075223148245	398.846066201256	330.706331155802	777.095724048600	357.935956675572	283.515549296140	763.310714526312	228.359919062496	337.917359724465	1056.046571999941	411.470538461097	574.207484535502	993.885173251280	302.267786097196	636.162574773110	1044.872122859961	211.081017558150	573.916995604553	924.382314270524	42.071793581425	544.966088274468	1095.965181043922	99.513523042281	578.648253826388	1008.810543283432	36.822049231606	617.822722795635	1216.238453590897	48.045260295966	603.323193526682	573.710321096152	162.588724661761	377.770737025056	630.168072296607	110.665015702643	301.903285044107	734.057662185148	122.111560199732	321.376229508613	813.211793058927	30.427992324777	304.637625795940	916.076559434728	1068.906761964290	180.458753876299	1142.269735703796	941.388430173013	187.658290886074	867.622625464387	1126.838672464091	761.724604368671	884.059610874043	864.415011594601	764.495306661966	
39	14.405142857143	767.512938089397	1006.018767557830	496.097522122788	951.617244817855	1420.006787376477	289.721449690076	1058.218582948082	1353.498817646645	451.209434964826	983.232146924597	1443.345308729764	621.293832718284	963.452495797864	1488.054203352354	438.788644176282	997.263792895251	939.810657491409	610.496267088378	975.951102481457	956.399052090680	336.403638225366	1053.058959841523	748.179518155785	582.161652519793	980.021887470436	634.157103013320	642.048136215928	1061.477938670148	588.298058088059	561.387094862198	1070.094334680748	500.864377685177	567.355528246385	1016.224099045881	740.282124696416	356.293928195605	926.939557294633	628.580509947206	288.943992105849	1013.194373164090	540.757013328416	343.764852248090	1003.157458797325	454.833924363442	338.303684895925	931.483568607929	400.291744140855	331.931510173501	788.314374727574	364.353359387530	284.081599707746	769.961990212449	235.234800392511	337.909450570245	1049.479798084773	411.089136136159	575.686384245774	986.831322539484	302.003892516176	637.235398517229	1037.346059828068	210.792148952041	574.575949874279	916.239646964595	42.065728764765	545.060761599713	1087.808182422686	99.426171602488	578.836997074366	1000.632935304649	36.769830730884	617.926703981523	1208.152175635929	47.598300552832	603.489555094846	578.314005288085	180.118215208708	377.009743686336	631.376054162005	124.080483216402	301.382196817030	735.932760437066	128.271567624571	321.020631104811	807.562087325057	29.227807880475	304.652597127350	910.452587803965	1069.056021394554	185.865327760250	1128.970481413947	927.365127144695	191.369370994212	873.596366962364	1125.880711431504	764.348972586138	898.894620293630	864.166493070700	763.385635639876	
